<?xml version="1.0" encoding="UTF-8" standalone="no"?>
<svg
   height="52.158077"
   viewBox="0 0 52.160286 52.158077"
   width="52.160286"
   version="1.1"
   id="svg8"
   sodipodi:docname="mostaql-logo.svg"
   inkscape:version="1.2.1 (9c6d41e410, 2022-07-14)"
   xml:space="preserve"
   xmlns:inkscape="http://www.inkscape.org/namespaces/inkscape"
   xmlns:sodipodi="http://sodipodi.sourceforge.net/DTD/sodipodi-0.dtd"
   xmlns="http://www.w3.org/2000/svg"
   xmlns:svg="http://www.w3.org/2000/svg"><defs
     id="defs12" /><sodipodi:namedview
     id="namedview10"
     pagecolor="#505050"
     bordercolor="#eeeeee"
     borderopacity="1"
     inkscape:showpageshadow="0"
     inkscape:pageopacity="0"
     inkscape:pagecheckerboard="0"
     inkscape:deskcolor="#505050"
     showgrid="false"
     inkscape:zoom="6.5555556"
     inkscape:cx="38.516949"
     inkscape:cy="31.728813"
     inkscape:window-width="1680"
     inkscape:window-height="987"
     inkscape:window-x="-8"
     inkscape:window-y="-8"
     inkscape:window-maximized="1"
     inkscape:current-layer="g6" /><g
     fill="none"
     fill-rule="evenodd"
     id="g6"
     transform="translate(-9.9198566,-9.9209618)"><path
       id="path352"
       style="fill:#ffffff;fill-opacity:1;stroke:none;stroke-width:4.00803;stroke-linecap:round"
       d="M 35.999997,9.9209618 A 26.079706,26.079706 0 0 0 9.9198566,35.998895 26.079706,26.079706 0 0 0 35.999997,62.079039 26.079706,26.079706 0 0 0 62.080143,35.998895 26.079706,26.079706 0 0 0 35.999997,9.9209618 Z m 0,13.5587552 A 12.520702,12.520702 0 0 1 48.521385,35.998895 12.520702,12.520702 0 0 1 35.999997,48.520284 12.520702,12.520702 0 0 1 23.478607,35.998895 12.520702,12.520702 0 0 1 35.999997,23.479717 Z" /></g></svg>
