<?xml version="1.0" encoding="UTF-8" standalone="no"?>
<!-- Generator: Adobe Illustrator 16.0.4, SVG Export Plug-In . SVG Version: 6.00 Build 0)  -->

<svg
   version="1.1"
   id="Layer_1"
   x="0px"
   y="0px"
   width="68.395416"
   height="72.560127"
   viewBox="0 0 68.395417 72.560127"
   enable-background="new 0 0 124 33"
   xml:space="preserve"
   sodipodi:docname="paypal-logo.svg"
   inkscape:version="1.2.1 (9c6d41e410, 2022-07-14)"
   xmlns:inkscape="http://www.inkscape.org/namespaces/inkscape"
   xmlns:sodipodi="http://sodipodi.sourceforge.net/DTD/sodipodi-0.dtd"
   xmlns="http://www.w3.org/2000/svg"
   xmlns:svg="http://www.w3.org/2000/svg"><defs
   id="defs1961" /><sodipodi:namedview
   id="namedview1959"
   pagecolor="#505050"
   bordercolor="#eeeeee"
   borderopacity="1"
   inkscape:showpageshadow="0"
   inkscape:pageopacity="0"
   inkscape:pagecheckerboard="0"
   inkscape:deskcolor="#505050"
   showgrid="false"
   inkscape:zoom="2.5284424"
   inkscape:cx="-33.024284"
   inkscape:cy="24.125525"
   inkscape:window-width="1680"
   inkscape:window-height="987"
   inkscape:window-x="-8"
   inkscape:window-y="-8"
   inkscape:window-maximized="1"
   inkscape:current-layer="Layer_1" />










<path
   id="path1938-1"
   style="fill:#ffffff;stroke-width:3.25635"
   d="m 62.580428,16.394109 c 0.55019,2.463346 0.46812,5.331483 -0.25586,8.585937 -2.92752,13.472506 -12.07878,20.269531 -27.39648,20.269531 h -7.36133 c -1.58788,0 -2.99354,1.061941 -3.30469,2.50586 l -3.21484,14.750001 c -0.31452,1.44394 -1.71536,2.5039 -3.30664,2.5039 h -6.273441 l -1.19922,5.5 c -0.23657,1.07905 0.63078,2.05079 1.824221,2.05079 h 11.10156 c 1.59128,0 2.99212,-1.05998 3.30664,-2.50391 l 3.21485,-14.75 c 0.31115,-1.44392 1.71681,-2.50391 3.30469,-2.50391 h 7.36132 c 15.31771,0 24.47091,-6.798975 27.39844,-20.271481 1.31121,-5.89422 0.52614,-10.526149 -2.33398,-13.769531 -0.79108,-0.896874 -1.75009,-1.686404 -2.86524,-2.367187 z"
   sodipodi:nodetypes="ccssccsccssccssccc" /><path
   fill="#253b80"
   d="m 38.517436,0 h -23.25371 c -1.59126,0 -2.99324,1.060337 -3.30763,2.501149 L 0.03906557,57.192725 c -0.23657,1.07905 0.62999,2.05206 1.82343003,2.05206 H 12.964026 c 1.59128,0 2.99325,-1.06033 3.30777,-2.50426 l 3.2141,-14.751172 c 0.31115,-1.44393 1.71651,-2.50426 3.30439,-2.50426 h 7.36136 c 15.31772,0 24.47043,-6.79864 27.39796,-20.271159 1.31121,-5.894226 0.52765,-10.525405 -2.33248,-13.76879 C 52.075756,1.883658 46.300406,0 38.517436,0 Z m 1.76521,19.974882 c -1.62321,7.653141 -7.9985,7.653141 -14.163,7.653141 h -3.50896 l 3.11824,-14.292721 c 0.18589,-0.863863 1.03114,-1.500066 1.98318,-1.500066 h 1.60829 c 4.1992,0 8.16037,0 10.10643,2.195522 1.1605,1.309829 1.44513,3.255856 0.85582,5.944124 z"
   id="path1938"
   style="fill:#ffffff;stroke-width:3.25635" /></svg>
