<?xml version="1.0" encoding="UTF-8" standalone="no"?>
<svg
   height="1990.9117"
   width="1735.6664"
   viewBox="-0.32296741 -3.1283529 33.999999 33.549533"
   version="1.1"
   id="svg14"
   sodipodi:docname="tiktok-logo.svg"
   inkscape:version="1.2.1 (9c6d41e410, 2022-07-14)"
   xmlns:inkscape="http://www.inkscape.org/namespaces/inkscape"
   xmlns:sodipodi="http://sodipodi.sourceforge.net/DTD/sodipodi-0.dtd"
   xmlns="http://www.w3.org/2000/svg"
   xmlns:svg="http://www.w3.org/2000/svg">
  <defs
     id="defs18" />
  <sodipodi:namedview
     id="namedview16"
     pagecolor="#505050"
     bordercolor="#eeeeee"
     borderopacity="1"
     inkscape:showpageshadow="0"
     inkscape:pageopacity="0"
     inkscape:pagecheckerboard="0"
     inkscape:deskcolor="#505050"
     showgrid="false"
     inkscape:zoom="0.1888"
     inkscape:cx="1141.4195"
     inkscape:cy="979.87288"
     inkscape:window-width="1680"
     inkscape:window-height="987"
     inkscape:window-x="-8"
     inkscape:window-y="-8"
     inkscape:window-maximized="1"
     inkscape:current-layer="svg14" />
  <g
     fill="none"
     id="g12"
     transform="translate(-0.32296741,-5.8535888)">
    <path
       d="M 14,15.599 V 14.113 A 13.1,13.1 0 0 0 12.337,14 C 5.535,14 0,19.18 0,25.547 0,29.452 2.086,32.91 5.267,35 3.137,32.868 1.952,30.058 1.954,27.139 1.954,20.863 7.331,15.745 14,15.599"
       fill="#00f2ea"
       id="path2" />
    <path
       d="m 14.327,32 c 2.876,0 5.221,-2.273 5.328,-5.107 l 0.01,-25.292 h 4.65 A 8.72,8.72 0 0 1 24.164,0 h -6.35 l -0.011,25.293 c -0.106,2.832 -2.453,5.105 -5.328,5.105 A 5.329,5.329 0 0 1 9.999,29.788 5.34,5.34 0 0 0 14.327,32 M 32.999,10.186 V 8.78 A 8.818,8.818 0 0 1 28.189,7.359 8.85,8.85 0 0 0 33,10.186"
       fill="#00f2ea"
       id="path4" />
    <path
       d="M 28,7.718 A 8.63,8.63 0 0 1 25.832,2 H 24.135 A 8.735,8.735 0 0 0 28,7.718 M 12.325,20.065 C 9.385,20.069 7.003,22.426 7,25.335 A 5.267,5.267 0 0 0 9.854,30 5.2,5.2 0 0 1 8.846,26.927 c 0.003,-2.91 2.385,-5.268 5.325,-5.271 0.55,0 1.075,0.09 1.572,0.244 v -6.4 a 11.72,11.72 0 0 0 -1.572,-0.114 c -0.092,0 -0.183,0.006 -0.274,0.007 v 4.916 a 5.286,5.286 0 0 0 -1.572,-0.244"
       fill="#ff004f"
       id="path6" />
    <path
       d="m 32.153,11 v 4.884 A 15.15,15.15 0 0 1 23.34,13.073 V 25.84 c 0,6.377 -5.23,11.565 -11.658,11.565 C 9.197,37.405 6.893,36.627 5,35.308 A 11.67,11.67 0 0 0 13.528,39 c 6.429,0 11.659,-5.188 11.659,-11.564 V 14.668 A 15.15,15.15 0 0 0 34,17.478 V 11.195 A 8.87,8.87 0 0 1 32.153,11"
       fill="#ff004f"
       id="path8" />
    <path
       d="M 23.979,25.42 V 12.632 A 15.741,15.741 0 0 0 33,15.448 v -4.89 A 9.083,9.083 0 0 1 28.088,7.738 C 26.016,6.431 24.586,4.358 24.132,2 h -4.747 l -0.01,25.215 c -0.11,2.824 -2.505,5.09 -5.44,5.09 -1.754,-0.002 -3.398,-0.822 -4.42,-2.204 -1.794,-0.913 -2.919,-2.716 -2.92,-4.682 0.003,-2.92 2.44,-5.285 5.45,-5.289 0.56,0 1.098,0.09 1.608,0.245 V 15.442 C 7.202,15.589 2,20.722 2,27.016 c 0,3.045 1.219,5.816 3.205,7.885 A 12.115,12.115 0 0 0 12.045,37 c 6.58,0 11.934,-5.195 11.934,-11.58"
       fill="#ffffff"
       id="path10" />
  </g>
</svg>
