<?xml version="1.0" encoding="UTF-8" standalone="no"?>
<!-- Uploaded to: SVG Repo, www.svgrepo.com, Generator: SVG Repo Mixer Tools -->

<svg
   fill="#000000"
   width="650.06427"
   height="750.03748"
   viewBox="0 0 416.04113 480.02398"
   id="icons"
   version="1.1"
   sodipodi:docname="tiktok-logo.svg"
   inkscape:version="1.2.1 (9c6d41e410, 2022-07-14)"
   xmlns:inkscape="http://www.inkscape.org/namespaces/inkscape"
   xmlns:sodipodi="http://sodipodi.sourceforge.net/DTD/sodipodi-0.dtd"
   xmlns="http://www.w3.org/2000/svg"
   xmlns:svg="http://www.w3.org/2000/svg">
  <defs
     id="defs7" />
  <sodipodi:namedview
     id="namedview5"
     pagecolor="#505050"
     bordercolor="#eeeeee"
     borderopacity="1"
     inkscape:showpageshadow="0"
     inkscape:pageopacity="0"
     inkscape:pagecheckerboard="0"
     inkscape:deskcolor="#505050"
     showgrid="false"
     inkscape:zoom="0.295"
     inkscape:cx="327.11864"
     inkscape:cy="376.27119"
     inkscape:window-width="1680"
     inkscape:window-height="987"
     inkscape:window-x="-8"
     inkscape:window-y="-8"
     inkscape:window-maximized="1"
     inkscape:current-layer="icons" />
  <path
     d="m 364.23112,102.66 a 109.27,109.27 0 0 1 -9.45,-5.5 132.87,132.87 0 0 1 -24.27,-20.62 c -18.1,-20.71 -24.86,-41.72 -27.35,-56.43 h 0.1 C 301.18112,7.9 302.04112,0 302.17112,0 h -82.44 v 318.78 c 0,4.28 0,8.51 -0.18,12.69 0,0.52 -0.05,1 -0.08,1.56 0,0.23 0,0.47 -0.05,0.71 0,0.06 0,0.12 0,0.18 a 70,70 0 0 1 -35.22,55.56 68.8,68.8 0 0 1 -34.11,9 c -38.41,0 -69.540001,-31.32 -69.540001,-70 0,-38.68 31.130001,-70 69.540001,-70 a 68.9,68.9 0 0 1 21.41,3.39 l 0.1,-83.94 a 153.14,153.14 0 0 0 -118.000001,34.52 161.79,161.79 0 0 0 -35.3,43.53 c -3.48,6 -16.6100004,30.11 -18.20000037,69.24 -1,22.21 5.66999997,45.22 8.84999997,54.73 v 0.2 c 2.0000004,5.6 9.7500004,24.71 22.3800004,40.82 a 167.53,167.53 0 0 0 35.71,33.69 v -0.2 l 0.2,0.2 C 107.15112,481.78 151.40112,480 151.40112,480 c 7.66,-0.31 33.32,0 62.46,-13.81 32.32,-15.31 50.72,-38.12 50.72,-38.12 a 158.46,158.46 0 0 0 27.64,-45.93 c 7.46,-19.61 9.95,-43.13 9.95,-52.53 V 160.49 c 1,0.6 14.32,9.41 14.32,9.41 0,0 19.19,12.3 49.13,20.31 21.48,5.7 50.42,6.9 50.42,6.9 v -81.84 c -10.14,1.1 -30.73,-2.1 -51.81,-12.61 z"
     id="path2"
     style="fill:#ffffff" />
</svg>
