<?xml version="1.0" encoding="UTF-8" standalone="no"?>
<svg
   viewBox="409.289 277.787 163.2793 114.30078"
   width="163.2793"
   height="114.30078"
   version="1.1"
   id="svg27"
   sodipodi:docname="YouTube_Logo_2017.svg"
   inkscape:version="1.2.1 (9c6d41e410, 2022-07-14)"
   xmlns:inkscape="http://www.inkscape.org/namespaces/inkscape"
   xmlns:sodipodi="http://sodipodi.sourceforge.net/DTD/sodipodi-0.dtd"
   xmlns="http://www.w3.org/2000/svg"
   xmlns:svg="http://www.w3.org/2000/svg">
  <defs
     id="defs31" />
  <sodipodi:namedview
     id="namedview29"
     pagecolor="#505050"
     bordercolor="#eeeeee"
     borderopacity="1"
     inkscape:showpageshadow="0"
     inkscape:pageopacity="0"
     inkscape:pagecheckerboard="0"
     inkscape:deskcolor="#505050"
     showgrid="false"
     inkscape:zoom="2.0647238"
     inkscape:cx="256.45077"
     inkscape:cy="57.150501"
     inkscape:window-width="1680"
     inkscape:window-height="987"
     inkscape:window-x="-8"
     inkscape:window-y="-8"
     inkscape:window-maximized="1"
     inkscape:current-layer="g6" />
  <g
     viewBox="0 0 90 20"
     preserveAspectRatio="xMidYMid meet"
     class="style-scope yt-icon"
     transform="matrix(5.715038,0,0,5.715038,409.28876,277.78723)"
     id="g25">
    <g
       class="style-scope yt-icon"
       id="g6">
      <path
         id="path2"
         class="style-scope yt-icon"
         d="m 14.284929,-4.0419679e-5 c 0,0 -8.9344282,1.7113775e-5 -11.161616,0.597382289679 C 1.8933142,0.92659854 0.92668148,1.8932213 0.59742481,3.12323 5.9633177e-5,5.3504078 4.2519402e-5,9.9999614 4.2519402e-5,9.9999614 c 0,0 1.7113775e-5,4.6495336 0.597382290598,6.8767316 0.32925667,1.229999 1.29588939,2.196688 2.52588819,2.525888 2.2271878,0.597399 11.161616,0.597382 11.161616,0.597382 0,0 8.934861,1.7e-5 11.161959,-0.597382 1.229999,-0.3292 2.196688,-1.295889 2.525888,-2.525888 0.597399,-2.227198 0.597382,-6.8767316 0.597382,-6.8767316 0,0 -0.0024,-4.6495536 -0.597382,-6.8767314 C 27.643576,1.8932213 26.676887,0.92659854 25.446888,0.59734187 23.21979,-2.3305904e-5 14.284929,-4.0419679e-5 14.284929,-4.0419679e-5 Z M 11.42515,5.7154181 18.847659,10.000303 11.42515,14.28553 Z"
         style="fill:#ffffff" />
    </g>
  </g>
</svg>
