<?xml version="1.0" encoding="UTF-8" standalone="no"?>
<svg
   viewBox="0 0 32 32"
   width="64"
   height="64"
   version="1.1"
   id="svg4"
   sodipodi:docname="expressjs.svg"
   inkscape:version="1.2.1 (9c6d41e410, 2022-07-14)"
   xmlns:inkscape="http://www.inkscape.org/namespaces/inkscape"
   xmlns:sodipodi="http://sodipodi.sourceforge.net/DTD/sodipodi-0.dtd"
   xmlns="http://www.w3.org/2000/svg"
   xmlns:svg="http://www.w3.org/2000/svg">
  <defs
     id="defs8" />
  <sodipodi:namedview
     id="namedview6"
     pagecolor="#505050"
     bordercolor="#eeeeee"
     borderopacity="1"
     inkscape:showpageshadow="0"
     inkscape:pageopacity="0"
     inkscape:pagecheckerboard="0"
     inkscape:deskcolor="#505050"
     showgrid="false"
     inkscape:zoom="10.429825"
     inkscape:cx="29.722455"
     inkscape:cy="32.790579"
     inkscape:window-width="1680"
     inkscape:window-height="987"
     inkscape:window-x="-8"
     inkscape:window-y="-8"
     inkscape:window-maximized="1"
     inkscape:current-layer="svg4" />
  <circle
     style="fill:#f2f2f2;stroke-width:0.505691"
     id="path220"
     cx="16"
     cy="16"
     r="16" />
  <path
     d="m 26.05055,21.522384 c -0.731177,0.185935 -1.183452,0.0082 -1.589243,-0.601149 l -2.885764,-3.992581 -0.417098,-0.55278 -3.370075,4.558553 c -0.385062,0.548383 -0.788968,0.787083 -1.507583,0.592982 l 4.315455,-5.792886 -4.017707,-5.232567 c 0.690975,-0.134426 1.168376,-0.06596 1.592384,0.55278 l 2.993179,4.042206 3.015165,-4.020221 c 0.386318,-0.548383 0.801532,-0.756932 1.49502,-0.554664 l -1.557836,2.065388 -2.110615,2.748197 c -0.251264,0.31408 -0.216715,0.52891 0.01445,0.832311 z M 5.9544751,15.637787 6.3075007,13.901554 c 0.9610839,-3.436032 4.8996433,-4.8638379 7.6158043,-2.740659 1.587359,1.248781 1.981843,3.015165 1.903323,4.993867 H 6.8791257 c -0.1344261,3.561664 2.4290924,5.711225 5.6974053,4.614459 1.146391,-0.385062 1.821663,-1.282702 2.159612,-2.405851 0.171488,-0.56283 0.455416,-0.650773 0.984326,-0.489964 -0.270108,1.404564 -0.879423,2.577966 -2.16715,3.312284 C 11.629267,22.284969 8.8829542,21.929431 7.4381876,20.401748 6.5776092,19.515415 6.222071,18.392266 6.0625186,17.191225 6.0373922,16.992727 5.9871394,16.803651 5.9494499,16.613318 q 0.00503,-0.487451 0.00503,-0.974903 z m 0.9409828,-0.238701 h 8.0856671 c -0.05277,-2.575453 -1.656456,-4.404653 -3.848104,-4.420357 -2.4058503,-0.01884 -4.1332886,1.767012 -4.2375631,4.420357 z"
     id="path2"
     style="stroke-width:0.628159" />
</svg>
