<?xml version="1.0" encoding="UTF-8" standalone="no"?>
<svg
   width="480"
   height="480"
   viewBox="0 0 240 240"
   version="1.1"
   id="svg1093"
   sodipodi:docname="mongodb.svg"
   xml:space="preserve"
   inkscape:version="1.2.1 (9c6d41e410, 2022-07-14)"
   xmlns:inkscape="http://www.inkscape.org/namespaces/inkscape"
   xmlns:sodipodi="http://sodipodi.sourceforge.net/DTD/sodipodi-0.dtd"
   xmlns="http://www.w3.org/2000/svg"
   xmlns:svg="http://www.w3.org/2000/svg"><defs
     id="defs1097" /><sodipodi:namedview
     id="namedview1095"
     pagecolor="#505050"
     bordercolor="#eeeeee"
     borderopacity="1"
     inkscape:showpageshadow="0"
     inkscape:pageopacity="0"
     inkscape:pagecheckerboard="0"
     inkscape:deskcolor="#505050"
     showgrid="false"
     inkscape:zoom="0.921875"
     inkscape:cx="165.9661"
     inkscape:cy="188.74576"
     inkscape:window-width="1680"
     inkscape:window-height="987"
     inkscape:window-x="-8"
     inkscape:window-y="-8"
     inkscape:window-maximized="1"
     inkscape:current-layer="svg1093" /><circle
     style="fill:#ffffff;fill-opacity:1;stroke-width:0.901223"
     id="path1215"
     cx="120"
     cy="120"
     r="120" /><path
     d="m 133.79958,58.271023 c -6.66784,-7.91119 -12.40965,-15.945985 -13.58265,-17.614755 -0.12351,-0.123612 -0.30878,-0.123612 -0.43223,0 -1.17306,1.66877 -6.9148,9.703565 -13.5827,17.614755 -57.232372,72.992877 9.01402,122.252747 9.01402,122.252747 l 0.55563,0.37091 c 0.49386,7.60179 1.72868,18.54176 1.72868,18.54176 h 2.46958 2.46957 c 0,0 1.23482,-10.87816 1.72875,-18.54176 l 0.55562,-0.43273 c 0.0617,0.0618 66.30835,-49.19805 9.07573,-122.190927 z M 119.96991,179.41104 c 0,0 -2.96345,-2.53393 -3.76609,-3.8315 v -0.12425 l 3.58088,-79.482433 c 0,-0.247273 0.37048,-0.247273 0.37048,0 l 3.58082,79.482433 v 0.12425 c -0.80259,1.29757 -3.76609,3.8315 -3.76609,3.8315 z"
     fill="#001e2b"
     id="path1063"
     style="stroke-width:0.618182" /></svg>
