<?xml version="1.0" encoding="UTF-8" standalone="no"?>
<svg
   width="303.94147"
   height="357.13684"
   viewBox="0 0 303.94147 357.13684"
   version="1.1"
   preserveAspectRatio="xMidYMid"
   id="svg6"
   sodipodi:docname="prisma.svg"
   inkscape:version="1.2.1 (9c6d41e410, 2022-07-14)"
   xml:space="preserve"
   xmlns:inkscape="http://www.inkscape.org/namespaces/inkscape"
   xmlns:sodipodi="http://sodipodi.sourceforge.net/DTD/sodipodi-0.dtd"
   xmlns="http://www.w3.org/2000/svg"
   xmlns:svg="http://www.w3.org/2000/svg"><defs
     id="defs10" /><sodipodi:namedview
     id="namedview8"
     pagecolor="#505050"
     bordercolor="#eeeeee"
     borderopacity="1"
     inkscape:showpageshadow="0"
     inkscape:pageopacity="0"
     inkscape:pagecheckerboard="0"
     inkscape:deskcolor="#505050"
     showgrid="false"
     inkscape:zoom="1.0766271"
     inkscape:cx="273.07505"
     inkscape:cy="250.78321"
     inkscape:window-width="1680"
     inkscape:window-height="987"
     inkscape:window-x="-8"
     inkscape:window-y="-8"
     inkscape:window-maximized="1"
     inkscape:current-layer="svg6" /><path
     id="path2-0"
     style="fill:#e6e6e6;fill-opacity:1"
     d="M 155.86669,0.00913276 C 141.24998,0.02230176 127.10243,8.6944208 120.20263,21.536477 81.746082,83.835094 43.262486,146.11727 4.878411,208.4603 c -7.439293,13.55465 -6.266551,31.28824 2.80901,43.79086 18.953075,29.33107 37.830192,58.71349 56.901928,87.965 9.300334,12.69845 26.203425,19.2586 41.634531,16.15988 4.28611,-0.9536 8.452,-2.37324 12.68019,-3.5479 39.74957,-11.70391 79.47258,-23.49667 119.20652,-35.25374 12.91391,-3.84014 25.83554,-7.65842 38.72822,-11.56598 14.80742,-5.39843 25.81123,-19.90701 26.95822,-35.63294 0.80236,-8.95039 -1.81279,-17.89562 -5.99882,-25.73943 -34.56777,-73.22607 -69.00995,-146.512021 -103.578,-219.738245 -1.47609,-3.298034 -3.18972,-6.51567 -5.50012,-9.312648 C 180.9153,5.7530538 168.44618,-0.26737324 155.86669,0.00913276 Z"
     sodipodi:nodetypes="cccccccccccccc" /><g
     id="g4"
     style="fill:#113648;fill-opacity:1"
     transform="translate(23.940911,24.001321)"><path
       d="M 254.31288,235.51877 148.00096,9.7498726 C 145.3098,4.0893508 139.73192,0.35988455 133.47262,0.03597531 127.19891,-0.38437434 121.21205,2.7192584 117.93966,8.0883866 L 2.6325256,194.84714 c -3.57965506,5.75711 -3.50434049,13.06563 0.1931961,18.74775 l 56.3746073,87.30143 c 4.380172,6.73031 12.665899,9.77731 20.362863,7.48828 L 243.16161,259.99285 c 4.98386,-1.45715 9.09119,-5.00349 11.25946,-9.72163 2.13881,-4.69541 2.10207,-10.09431 -0.10046,-14.76017 z m -23.80175,9.68299 -138.822954,41.0503 c -4.234857,1.25964 -8.299702,-2.41109 -7.418728,-6.68459 L 133.86674,42.083163 c 0.92734,-4.443509 7.06324,-5.146742 9.00293,-1.035531 l 91.81449,194.973448 c 0.82154,1.75834 0.83145,3.78835 0.0271,5.55462 -0.80434,1.76627 -2.34216,3.09146 -4.20787,3.62606 z"
       fill="#000000"
       fill-rule="nonzero"
       id="path2"
       style="fill:#113648;fill-opacity:1" /></g></svg>
