<?xml version="1.0" encoding="UTF-8" standalone="no"?>
<!-- Generator: Adobe Illustrator 19.2.1, SVG Export Plug-In . SVG Version: 6.00 Build 0)  -->

<svg
   version="1.1"
   id="layer"
   x="0px"
   y="0px"
   viewBox="0 0 640 640"
   xml:space="preserve"
   sodipodi:docname="woocommerce.svg"
   inkscape:version="1.2.1 (9c6d41e410, 2022-07-14)"
   width="640"
   height="640"
   xmlns:inkscape="http://www.inkscape.org/namespaces/inkscape"
   xmlns:sodipodi="http://sodipodi.sourceforge.net/DTD/sodipodi-0.dtd"
   xmlns="http://www.w3.org/2000/svg"
   xmlns:svg="http://www.w3.org/2000/svg"><defs
   id="defs15" /><sodipodi:namedview
   id="namedview13"
   pagecolor="#505050"
   bordercolor="#eeeeee"
   borderopacity="1"
   inkscape:showpageshadow="0"
   inkscape:pageopacity="0"
   inkscape:pagecheckerboard="0"
   inkscape:deskcolor="#505050"
   showgrid="false"
   inkscape:zoom="0.72392638"
   inkscape:cx="593.98305"
   inkscape:cy="172.66949"
   inkscape:window-width="1680"
   inkscape:window-height="987"
   inkscape:window-x="-8"
   inkscape:window-y="-8"
   inkscape:window-maximized="1"
   inkscape:current-layer="g10" />
<style
   type="text/css"
   id="style2">
	.st0{fill-rule:evenodd;clip-rule:evenodd;fill:#945C87;}
	.st1{fill-rule:evenodd;clip-rule:evenodd;fill:#FFFFFF;}
	.st2{fill-rule:evenodd;clip-rule:evenodd;}
</style>
<g
   id="g10"
   transform="translate(1.9535322)">
	
	
	
<rect
   style="fill:#533582;fill-opacity:1;stroke-width:1.24359"
   id="rect227"
   width="640"
   height="640"
   x="-1.9535322"
   y="5.5191617e-07"
   ry="61.536266" /><g
   id="g517"
   transform="translate(-16.27373,-12.109031)"><path
     class="st0"
     d="m 107.72606,176.21215 c 6.39336,-15.29837 22.37674,-26.25841 39.04514,-26.25841 125.81207,0 251.62414,0 377.66455,0 10.96004,-0.22833 21.92007,3.88168 29.91176,11.18836 9.13338,8.22004 14.38505,20.55007 14.15672,32.88012 0,48.17849 0,96.35698 0,144.76381 -0.22834,21.69173 -19.18006,41.32846 -40.87181,41.78513 -45.89513,0.22834 -91.79029,0 -137.68543,0 6.16501,15.29838 12.33003,30.36843 18.49506,45.66682 -27.40009,-15.07006 -54.34352,-30.59676 -81.97194,-45.43848 -60.28019,-0.45667 -120.78873,0 -181.29726,-0.22834 -21.69173,-0.68501 -40.64347,-20.0934 -40.87179,-41.78513 -0.22834,-47.26516 0,-94.53032 -0.22834,-141.56714 0,-7.07836 0.68501,-14.38504 3.65334,-21.00674"
     id="path4"
     style="fill:#ffffff;fill-opacity:1;stroke-width:2.28334" /><path
     class="st1"
     d="m 292.22,179.63718 c 6.85002,-7.30671 20.09339,-5.02337 25.34509,3.42499 2.74,4.33836 2.96833,10.27504 0.68499,14.84173 -9.59002,19.18005 -13.70004,40.41513 -17.35339,61.19352 -4.33834,27.17176 -7.99168,54.80019 -6.62168,82.42862 0.45667,7.07836 -2.96834,15.52671 -10.50338,17.35339 -7.07835,1.59833 -13.70004,-3.19669 -18.26672,-8.22004 -20.55007,-22.1484 -32.19511,-50.69016 -40.64347,-79.23192 -8.44837,16.66839 -16.89671,33.56511 -25.11675,50.2335 -5.70835,11.4167 -11.87336,23.06174 -21.00674,32.1951 -3.88166,3.88168 -10.50335,7.3067 -15.52671,3.42502 -7.53501,-6.6217 -9.36168,-17.12506 -12.55837,-26.03009 -12.10171,-41.78514 -18.95172,-84.94027 -26.03008,-127.86708 -1.59833,-7.07836 1.37,-15.75505 8.44836,-18.49507 5.70834,-2.055 13.24338,-2.51167 18.03838,1.82667 3.42502,2.96835 4.33836,7.76337 5.02336,12.10172 5.02335,33.33677 10.7317,66.44521 18.95173,99.09698 13.70004,-26.03008 27.40008,-52.06016 41.10013,-78.31858 2.05502,-3.88169 4.56668,-7.76336 8.22002,-10.0467 5.02336,-3.19669 12.33005,-2.96835 16.6684,1.59833 3.425,3.65335 4.79501,8.90503 5.70834,13.70005 4.11002,21.46341 9.59004,42.92681 17.58173,63.24854 3.42501,-30.8251 7.76336,-62.10688 18.95172,-91.10531 2.51169,-6.16501 4.79503,-12.33003 8.90504,-17.35337 m 77.40525,16.66838 c 14.84171,-1.82667 30.8251,3.19667 40.87179,14.38504 8.22004,9.3617 12.78672,21.46341 14.38507,33.56511 2.51166,20.77841 -1.37001,42.69848 -11.41672,61.19354 -5.70835,10.50337 -13.01504,20.77839 -23.5184,26.94341 -15.29839,9.3617 -35.84846,8.22004 -50.69017,-1.59833 -11.87337,-8.22003 -18.49506,-21.92007 -21.23506,-35.62012 -5.48003,-31.28177 3.88167,-65.98855 27.40008,-87.68028 6.85001,-6.16503 15.29838,-10.04671 24.20341,-11.18837 m 2.96835,31.96676 c -7.07836,2.28336 -11.64504,8.90503 -15.52673,14.84173 -9.59002,15.5267 -12.33004,35.84845 -4.56668,52.51683 2.055,4.33835 5.25169,9.13336 10.50337,10.04671 5.48003,0.91333 10.50337,-2.28336 14.38504,-5.70836 8.6767,-7.53503 13.01506,-18.72339 15.2984,-29.91176 2.28334,-12.55837 1.14166,-26.48675 -6.16502,-37.4468 -2.96836,-4.11001 -8.90504,-5.93667 -13.92838,-4.33835 m 115.53703,-31.96676 c 14.38505,-1.82667 30.14011,2.74 40.1868,13.47171 9.13336,9.81837 13.92838,22.8334 15.29839,36.07679 2.055,20.0934 -1.59833,41.10013 -11.18837,58.91018 -5.70836,10.7317 -13.24337,21.23507 -24.20341,27.62842 -14.61339,8.90504 -34.25012,7.99169 -48.8635,-0.68499 -9.81836,-5.9367 -16.44005,-15.98339 -20.32173,-26.71509 -10.27504,-32.65177 -1.59833,-71.0119 22.14841,-95.67198 7.76335,-6.85002 17.12505,-11.87338 26.94341,-13.01504 m 3.19668,31.96676 c -7.76336,2.74002 -12.33004,10.27504 -16.44006,16.89673 -8.67669,15.29838 -10.96003,35.16345 -2.96833,51.37517 2.055,4.56667 5.93668,8.90503 11.18837,9.13337 5.70835,0.22832 10.7317,-3.42502 14.84171,-7.3067 8.90503,-8.67669 12.78672,-21.00674 14.15672,-33.10844 1.37,-11.18837 -0.45667,-23.29008 -7.07836,-32.8801 -2.74001,-3.88169 -8.6767,-5.70835 -13.70005,-4.11003"
     id="path6"
     style="fill:#533582;fill-opacity:1;stroke-width:2.28334" /><path
     class="st2"
     d="m 126.36,442.74325 c 6.7044,-1.46277 13.77448,-1.34086 20.4789,0.2438 0,5.48542 0,10.97085 0,16.45627 -5.48542,-1.34088 -11.70224,-2.55986 -16.94386,0 -6.33871,3.16936 -9.87376,10.36135 -9.87376,17.18765 -0.36568,6.8263 1.95039,14.50589 8.04528,18.40663 5.60733,3.65694 12.79932,2.92557 18.89424,1.21898 0,5.48542 0,10.97085 0,16.45627 -8.16719,2.31606 -17.06576,2.07227 -24.98913,-0.8533 -9.50808,-3.53504 -17.06577,-11.82413 -19.99131,-21.57597 -2.194184,-7.43581 -2.437982,-15.35918 -0.7314,-22.91687 2.80367,-12.06794 13.04311,-21.94168 25.11104,-24.62346 m 49.49069,-0.85327 c 8.28906,-0.9752 17.30952,0.36568 24.01393,5.6073 6.46061,4.99783 9.62997,13.16501 10.84896,20.9665 1.09707,8.65479 0.85327,17.67524 -1.82849,25.96433 -2.31607,7.0701 -7.07009,13.6526 -13.89639,16.94385 -6.94819,3.29126 -15.11538,3.53506 -22.55117,1.82849 -6.8263,-1.58469 -12.92121,-6.09492 -16.33437,-12.31174 -4.75403,-8.28906 -5.6073,-18.16283 -5.24163,-27.549 0.3657,-8.04527 2.43797,-16.45625 7.80149,-22.67307 4.38833,-4.99782 10.72705,-8.04528 17.18767,-8.77666 m 2.55986,15.72487 c -3.53506,0.85328 -5.60732,4.38833 -6.46062,7.67959 -1.70658,6.5825 -1.46278,13.4088 -0.97519,20.11319 0.4876,3.65696 0.85329,7.55771 3.41315,10.48326 3.41316,3.90074 10.36136,3.41315 13.40882,-0.60949 2.07226,-2.55986 2.68176,-5.85112 3.04745,-9.02048 0.73139,-5.60732 0.85329,-11.33652 0,-16.94384 -0.60949,-3.41316 -1.58468,-6.9482 -4.02265,-9.50806 -2.19416,-2.19417 -5.48542,-2.92556 -8.41096,-2.19417 m 325.10256,-14.6278 c 7.07011,-1.82847 14.50591,-1.58466 21.57599,-0.12192 0.12194,5.48542 0,10.97084 0.12194,16.57816 -5.36353,-1.34089 -11.33653,-2.55986 -16.57815,-0.2438 -6.09493,2.80366 -9.75187,9.26427 -10.23946,15.72488 -0.73139,7.31389 1.21898,15.60298 7.67959,19.86941 5.60732,3.90073 12.9212,3.16936 19.13802,1.34087 -0.12194,5.48543 0.12193,11.09275 -0.12194,16.57817 -8.65476,2.19417 -18.16283,1.95037 -26.33,-1.58469 -9.02048,-3.90073 -16.09058,-12.18982 -18.65043,-21.69787 -1.95038,-7.3139 -2.19417,-15.11539 -0.3657,-22.55118 2.68176,-11.45843 12.31172,-20.8446 23.77014,-23.89206 m -281.9506,0.4876 c 7.80149,0 15.72488,0 23.52636,0 2.80366,12.67742 5.48543,25.47673 7.92339,38.27605 2.19417,-12.92122 5.24162,-25.59863 8.28908,-38.27605 8.04527,0 16.09056,0 24.13584,0 3.16937,23.03876 6.21682,46.07754 9.26428,68.9944 -6.09491,0 -12.31174,0 -18.40663,0 -1.70659,-15.72487 -3.16936,-31.57165 -4.99784,-47.29652 -3.77884,15.72487 -7.6796,31.57165 -11.45844,47.29652 -4.14453,0 -8.41098,0 -12.55551,0 -4.02264,-15.72487 -7.92339,-31.57165 -12.06792,-47.4184 -1.58468,15.72486 -3.16937,31.57162 -4.75403,47.4184 -5.85113,0 -11.70223,0 -17.67524,0 2.92555,-22.91686 5.8511,-45.95564 8.77666,-68.9944 m 84.35358,0 c 7.80149,0 15.72488,0 23.52636,0 2.80366,12.67742 5.48541,25.47673 7.92338,38.27605 2.31608,-12.79932 5.24162,-25.59863 8.28907,-38.27605 h 24.01397 c 3.16934,23.03876 6.2168,46.07754 9.26426,68.9944 -6.09492,0 -12.31172,0 -18.40664,0 -1.70656,-15.72487 -3.29124,-31.57165 -4.99782,-47.29652 -3.77884,15.72487 -7.5577,31.57165 -11.45843,47.29652 -4.14455,0 -8.41099,0 -12.55552,0 -4.02265,-15.84678 -8.04529,-31.57165 -12.06794,-47.4184 -1.58467,15.84675 -3.16934,31.57162 -4.75403,47.4184 -5.8511,0 -11.70222,0 -17.67524,0 3.04746,-22.91686 5.97302,-45.95564 8.89858,-68.9944 m 78.38057,0.2438 c 12.55551,-0.2438 25.23293,0 37.78845,-0.12193 0,4.87593 0,9.75185 0,14.74968 -6.33871,0.12193 -12.67742,0 -19.01612,0 0,4.26645 0,8.41098 0,12.67742 5.48541,0 10.97083,0 16.45625,0 0,4.75402 0,9.50807 0,14.2621 -5.48542,0 -10.97084,0 -16.45625,0 0,4.14453 0,8.41097 0,12.67741 6.3387,0 12.79929,0 19.13802,0 0,4.87594 0,9.75187 0,14.74969 -12.55552,0 -25.23294,0 -37.78845,0 -0.12194,-23.03877 0.12192,-45.95564 -0.12194,-68.9944 m 43.15198,-0.2438 c 7.92338,0 15.72487,-0.12193 23.64826,0 7.43579,0.2438 15.35916,2.07226 20.84458,7.31389 4.99784,4.63214 6.7044,12.31172 4.75404,18.77234 -1.58468,5.24162 -5.48543,9.50805 -10.36134,11.82412 4.87591,10.36135 9.87374,20.7227 14.87158,31.08405 -6.58251,0 -13.16501,0 -19.62562,0 -5.11973,-10.60515 -10.11755,-21.2103 -15.35919,-31.69354 -0.12192,10.60514 0,21.21029 0,31.69354 -6.21679,0 -12.43361,0 -18.65041,0 -0.12194,-22.91687 -0.12194,-45.95563 -0.12194,-68.9944 m 18.65043,13.28691 c 0,5.48542 0,10.97083 0,16.45626 3.41316,-0.2438 7.0701,-0.36569 9.87375,-2.43797 3.29126,-2.43796 2.92558,-7.4358 0.8533,-10.60515 -2.55987,-3.04744 -7.0701,-3.04744 -10.72705,-3.41314 m 84.35358,-13.16501 c 12.55552,0 25.11103,0 37.66655,0 0,4.87593 0,9.87375 0,14.74968 -6.3387,0 -12.79931,0 -19.13802,0 0,4.26645 0,8.41098 0,12.67742 5.48543,0 10.97084,0 16.45626,0 0,4.75402 0,9.50807 0,14.2621 H 548.9811 c 0,4.26643 0,8.41097 0,12.67741 6.46061,0 12.79932,0 19.25992,0 0,4.87594 0,9.75187 0,14.74969 -12.55552,0 -25.23293,0 -37.78845,0 -0.12193,-23.16067 0,-46.19943 0,-69.1163"
     id="path8"
     style="fill:#ffffff;fill-opacity:1;stroke-width:1.21898" /></g></g>
</svg>
